<svg width="198" height="33" viewBox="0 0 198 33" fill="none" xmlns="http://www.w3.org/2000/svg">
<rect width="197.596" height="32.9326" rx="10" fill="white"/>
<path d="M21.412 11.537C21.37 11.607 21.3233 11.6607 21.272 11.698C21.2253 11.7307 21.167 11.747 21.097 11.747C21.0177 11.747 20.9243 11.7073 20.817 11.628C20.7097 11.5487 20.5743 11.4623 20.411 11.369C20.2523 11.271 20.0587 11.1823 19.83 11.103C19.606 11.0237 19.333 10.984 19.011 10.984C18.7077 10.984 18.4393 11.026 18.206 11.11C17.9773 11.1893 17.7837 11.299 17.625 11.439C17.471 11.579 17.3543 11.7447 17.275 11.936C17.1957 12.1227 17.156 12.3257 17.156 12.545C17.156 12.825 17.2237 13.0583 17.359 13.245C17.499 13.427 17.681 13.5833 17.905 13.714C18.1337 13.8447 18.3903 13.959 18.675 14.057C18.9643 14.1503 19.2583 14.2483 19.557 14.351C19.8603 14.4537 20.1543 14.5703 20.439 14.701C20.7283 14.827 20.985 14.988 21.209 15.184C21.4377 15.38 21.6197 15.6203 21.755 15.905C21.895 16.1897 21.965 16.5397 21.965 16.955C21.965 17.3937 21.8903 17.8067 21.741 18.194C21.5917 18.5767 21.3723 18.9103 21.083 19.195C20.7983 19.4797 20.446 19.7037 20.026 19.867C19.6107 20.0303 19.137 20.112 18.605 20.112C17.9517 20.112 17.359 19.9953 16.827 19.762C16.295 19.524 15.84 19.2043 15.462 18.803L15.854 18.159C15.8913 18.1077 15.9357 18.0657 15.987 18.033C16.043 17.9957 16.1037 17.977 16.169 17.977C16.2297 17.977 16.2973 18.0027 16.372 18.054C16.4513 18.1007 16.54 18.1613 16.638 18.236C16.736 18.3107 16.848 18.3923 16.974 18.481C17.1 18.5697 17.2423 18.6513 17.401 18.726C17.5643 18.8007 17.7487 18.8637 17.954 18.915C18.1593 18.9617 18.3903 18.985 18.647 18.985C18.969 18.985 19.256 18.9407 19.508 18.852C19.76 18.7633 19.9723 18.6397 20.145 18.481C20.3223 18.3177 20.4577 18.124 20.551 17.9C20.6443 17.676 20.691 17.4263 20.691 17.151C20.691 16.8477 20.621 16.6003 20.481 16.409C20.3457 16.213 20.166 16.0497 19.942 15.919C19.718 15.7883 19.4613 15.6787 19.172 15.59C18.8827 15.4967 18.5887 15.4033 18.29 15.31C17.9913 15.212 17.6973 15.1 17.408 14.974C17.1187 14.848 16.862 14.6847 16.638 14.484C16.414 14.2833 16.232 14.0337 16.092 13.735C15.9567 13.4317 15.889 13.0583 15.889 12.615C15.889 12.2603 15.9567 11.9173 16.092 11.586C16.232 11.2547 16.4327 10.9607 16.694 10.704C16.96 10.4473 17.2843 10.242 17.667 10.088C18.0543 9.934 18.4977 9.857 18.997 9.857C19.557 9.857 20.0657 9.94567 20.523 10.123C20.985 10.3003 21.391 10.557 21.741 10.893L21.412 11.537ZM28.2935 15.681C28.2935 15.3917 28.2515 15.128 28.1675 14.89C28.0882 14.6473 27.9692 14.4397 27.8105 14.267C27.6565 14.0897 27.4675 13.9543 27.2435 13.861C27.0195 13.763 26.7652 13.714 26.4805 13.714C25.8832 13.714 25.4095 13.889 25.0595 14.239C24.7142 14.5843 24.4995 15.065 24.4155 15.681H28.2935ZM29.3015 19.006C29.1475 19.1927 28.9632 19.356 28.7485 19.496C28.5339 19.6313 28.3029 19.7433 28.0555 19.832C27.8129 19.9207 27.5609 19.986 27.2995 20.028C27.0382 20.0747 26.7792 20.098 26.5225 20.098C26.0325 20.098 25.5799 20.0163 25.1645 19.853C24.7539 19.685 24.3969 19.4423 24.0935 19.125C23.7949 18.803 23.5615 18.4063 23.3935 17.935C23.2255 17.4637 23.1415 16.9223 23.1415 16.311C23.1415 15.8163 23.2162 15.3543 23.3655 14.925C23.5195 14.4957 23.7389 14.1247 24.0235 13.812C24.3082 13.4947 24.6559 13.2473 25.0665 13.07C25.4772 12.888 25.9392 12.797 26.4525 12.797C26.8772 12.797 27.2692 12.8693 27.6285 13.014C27.9925 13.154 28.3052 13.3593 28.5665 13.63C28.8325 13.896 29.0402 14.2273 29.1895 14.624C29.3389 15.016 29.4135 15.464 29.4135 15.968C29.4135 16.164 29.3925 16.2947 29.3505 16.36C29.3085 16.4253 29.2292 16.458 29.1125 16.458H24.3735C24.3875 16.906 24.4482 17.2957 24.5555 17.627C24.6675 17.9583 24.8215 18.236 25.0175 18.46C25.2135 18.6793 25.4469 18.845 25.7175 18.957C25.9882 19.0643 26.2915 19.118 26.6275 19.118C26.9402 19.118 27.2085 19.083 27.4325 19.013C27.6612 18.9383 27.8572 18.859 28.0205 18.775C28.1839 18.691 28.3192 18.614 28.4265 18.544C28.5385 18.4693 28.6342 18.432 28.7135 18.432C28.8162 18.432 28.8955 18.4717 28.9515 18.551L29.3015 19.006ZM34.787 16.808C34.213 16.8267 33.723 16.8733 33.317 16.948C32.9157 17.018 32.5867 17.1113 32.33 17.228C32.078 17.3447 31.8937 17.4823 31.777 17.641C31.665 17.7997 31.609 17.977 31.609 18.173C31.609 18.3597 31.6394 18.5207 31.7 18.656C31.7607 18.7913 31.8424 18.9033 31.945 18.992C32.0524 19.076 32.176 19.139 32.316 19.181C32.4607 19.2183 32.6147 19.237 32.778 19.237C32.9974 19.237 33.198 19.216 33.38 19.174C33.562 19.1273 33.7324 19.062 33.891 18.978C34.0544 18.894 34.2084 18.7937 34.353 18.677C34.5024 18.5603 34.647 18.4273 34.787 18.278V16.808ZM30.762 13.91C31.154 13.532 31.5764 13.2497 32.029 13.063C32.4817 12.8763 32.9834 12.783 33.534 12.783C33.9307 12.783 34.283 12.8483 34.591 12.979C34.899 13.1097 35.158 13.2917 35.368 13.525C35.578 13.7583 35.7367 14.0407 35.844 14.372C35.9514 14.7033 36.005 15.0673 36.005 15.464V20H35.452C35.3307 20 35.2374 19.9813 35.172 19.944C35.1067 19.902 35.0554 19.8227 35.018 19.706L34.878 19.034C34.6914 19.2067 34.5094 19.3607 34.332 19.496C34.1547 19.6267 33.968 19.7387 33.772 19.832C33.576 19.9207 33.366 19.9883 33.142 20.035C32.9227 20.0863 32.6777 20.112 32.407 20.112C32.1317 20.112 31.8727 20.0747 31.63 20C31.3874 19.9207 31.175 19.804 30.993 19.65C30.8157 19.496 30.6734 19.3023 30.566 19.069C30.4634 18.831 30.412 18.551 30.412 18.229C30.412 17.949 30.489 17.6807 30.643 17.424C30.797 17.1627 31.0467 16.9317 31.392 16.731C31.7374 16.5303 32.1877 16.367 32.743 16.241C33.2984 16.1103 33.9797 16.0357 34.787 16.017V15.464C34.787 14.9133 34.668 14.498 34.43 14.218C34.192 13.9333 33.8444 13.791 33.387 13.791C33.079 13.791 32.82 13.8307 32.61 13.91C32.4047 13.9847 32.225 14.071 32.071 14.169C31.9217 14.2623 31.791 14.3487 31.679 14.428C31.5717 14.5027 31.4644 14.54 31.357 14.54C31.273 14.54 31.2007 14.519 31.14 14.477C31.0794 14.4303 31.028 14.3743 30.986 14.309L30.762 13.91ZM39.086 14.33C39.31 13.8447 39.5853 13.4667 39.912 13.196C40.2387 12.9207 40.6377 12.783 41.109 12.783C41.2583 12.783 41.4007 12.7993 41.536 12.832C41.676 12.8647 41.7997 12.916 41.907 12.986L41.816 13.917C41.788 14.0337 41.718 14.092 41.606 14.092C41.5407 14.092 41.445 14.078 41.319 14.05C41.193 14.022 41.0507 14.008 40.892 14.008C40.668 14.008 40.4673 14.0407 40.29 14.106C40.1173 14.1713 39.961 14.2693 39.821 14.4C39.6857 14.526 39.562 14.6847 39.45 14.876C39.3427 15.0627 39.2447 15.2773 39.156 15.52V20H37.903V12.909H38.617C38.7523 12.909 38.8457 12.9347 38.897 12.986C38.9483 13.0373 38.9833 13.126 39.002 13.252L39.086 14.33ZM47.6505 14.169C47.6132 14.2203 47.5758 14.26 47.5385 14.288C47.5012 14.316 47.4498 14.33 47.3845 14.33C47.3145 14.33 47.2375 14.302 47.1535 14.246C47.0695 14.1853 46.9645 14.12 46.8385 14.05C46.7172 13.98 46.5655 13.917 46.3835 13.861C46.2062 13.8003 45.9868 13.77 45.7255 13.77C45.3755 13.77 45.0675 13.833 44.8015 13.959C44.5355 14.0803 44.3115 14.2577 44.1295 14.491C43.9522 14.7243 43.8168 15.0067 43.7235 15.338C43.6348 15.6693 43.5905 16.0403 43.5905 16.451C43.5905 16.8803 43.6395 17.263 43.7375 17.599C43.8355 17.9303 43.9732 18.2103 44.1505 18.439C44.3325 18.663 44.5495 18.8357 44.8015 18.957C45.0582 19.0737 45.3452 19.132 45.6625 19.132C45.9658 19.132 46.2155 19.097 46.4115 19.027C46.6075 18.9523 46.7685 18.8707 46.8945 18.782C47.0252 18.6933 47.1325 18.614 47.2165 18.544C47.3052 18.4693 47.3915 18.432 47.4755 18.432C47.5782 18.432 47.6575 18.4717 47.7135 18.551L48.0635 19.006C47.9095 19.1973 47.7345 19.3607 47.5385 19.496C47.3425 19.6313 47.1302 19.7457 46.9015 19.839C46.6775 19.9277 46.4418 19.993 46.1945 20.035C45.9472 20.077 45.6952 20.098 45.4385 20.098C44.9952 20.098 44.5822 20.0163 44.1995 19.853C43.8215 19.6897 43.4925 19.454 43.2125 19.146C42.9325 18.8333 42.7132 18.4507 42.5545 17.998C42.3958 17.5453 42.3165 17.0297 42.3165 16.451C42.3165 15.9237 42.3888 15.436 42.5335 14.988C42.6828 14.54 42.8975 14.155 43.1775 13.833C43.4622 13.5063 43.8098 13.252 44.2205 13.07C44.6358 12.888 45.1118 12.797 45.6485 12.797C46.1478 12.797 46.5865 12.8787 46.9645 13.042C47.3472 13.2007 47.6855 13.427 47.9795 13.721L47.6505 14.169ZM50.6541 13.854C50.9574 13.532 51.2934 13.2753 51.6621 13.084C52.0307 12.8927 52.4554 12.797 52.9361 12.797C53.3234 12.797 53.6641 12.8623 53.9581 12.993C54.2567 13.119 54.5041 13.301 54.7001 13.539C54.9007 13.7723 55.0524 14.0547 55.1551 14.386C55.2577 14.7173 55.3091 15.0837 55.3091 15.485V20H54.0561V15.485C54.0561 14.9483 53.9324 14.533 53.6851 14.239C53.4424 13.9403 53.0714 13.791 52.5721 13.791C52.2034 13.791 51.8581 13.8797 51.5361 14.057C51.2187 14.2343 50.9247 14.4747 50.6541 14.778V20H49.4011V9.689H50.6541V13.854ZM56.9977 19.23C56.9977 19.1087 57.0187 18.9943 57.0607 18.887C57.1074 18.7797 57.168 18.6863 57.2427 18.607C57.322 18.5277 57.4154 18.4647 57.5227 18.418C57.63 18.3713 57.7444 18.348 57.8657 18.348C57.987 18.348 58.1014 18.3713 58.2087 18.418C58.316 18.4647 58.4094 18.5277 58.4887 18.607C58.568 18.6863 58.631 18.7797 58.6777 18.887C58.7244 18.9943 58.7477 19.1087 58.7477 19.23C58.7477 19.356 58.7244 19.4727 58.6777 19.58C58.631 19.6827 58.568 19.7737 58.4887 19.853C58.4094 19.9323 58.316 19.993 58.2087 20.035C58.1014 20.0817 57.987 20.105 57.8657 20.105C57.7444 20.105 57.63 20.0817 57.5227 20.035C57.4154 19.993 57.322 19.9323 57.2427 19.853C57.168 19.7737 57.1074 19.6827 57.0607 19.58C57.0187 19.4727 56.9977 19.356 56.9977 19.23ZM60.3063 19.23C60.3063 19.1087 60.3273 18.9943 60.3693 18.887C60.416 18.7797 60.4766 18.6863 60.5513 18.607C60.6306 18.5277 60.724 18.4647 60.8313 18.418C60.9386 18.3713 61.053 18.348 61.1743 18.348C61.2956 18.348 61.41 18.3713 61.5173 18.418C61.6246 18.4647 61.718 18.5277 61.7973 18.607C61.8766 18.6863 61.9396 18.7797 61.9863 18.887C62.033 18.9943 62.0563 19.1087 62.0563 19.23C62.0563 19.356 62.033 19.4727 61.9863 19.58C61.9396 19.6827 61.8766 19.7737 61.7973 19.853C61.718 19.9323 61.6246 19.993 61.5173 20.035C61.41 20.0817 61.2956 20.105 61.1743 20.105C61.053 20.105 60.9386 20.0817 60.8313 20.035C60.724 19.993 60.6306 19.9323 60.5513 19.853C60.4766 19.7737 60.416 19.6827 60.3693 19.58C60.3273 19.4727 60.3063 19.356 60.3063 19.23ZM63.6149 19.23C63.6149 19.1087 63.6359 18.9943 63.6779 18.887C63.7246 18.7797 63.7852 18.6863 63.8599 18.607C63.9392 18.5277 64.0326 18.4647 64.1399 18.418C64.2472 18.3713 64.3616 18.348 64.4829 18.348C64.6042 18.348 64.7186 18.3713 64.8259 18.418C64.9332 18.4647 65.0266 18.5277 65.1059 18.607C65.1852 18.6863 65.2482 18.7797 65.2949 18.887C65.3416 18.9943 65.3649 19.1087 65.3649 19.23C65.3649 19.356 65.3416 19.4727 65.2949 19.58C65.2482 19.6827 65.1852 19.7737 65.1059 19.853C65.0266 19.9323 64.9332 19.993 64.8259 20.035C64.7186 20.0817 64.6042 20.105 64.4829 20.105C64.3616 20.105 64.2472 20.0817 64.1399 20.035C64.0326 19.993 63.9392 19.9323 63.8599 19.853C63.7852 19.7737 63.7246 19.6827 63.6779 19.58C63.6359 19.4727 63.6149 19.356 63.6149 19.23Z" fill="#B0B0B0"/>
<circle cx="158" cy="14" r="4.5" stroke="#858585"/>
<line x1="161.354" y1="16.6464" x2="165.354" y2="20.6464" stroke="#858585"/>
</svg>
